<svg xmlns="http://www.w3.org/2000/svg" width="93.639" height="32.997" viewBox="0 0 93.639 32.997">
    <defs>
        <style>
            .cls-1{fill:#e5692c}
        </style>
    </defs>
    <g id="loginet_logo_color" transform="translate(-1.417 -.931)">
        <path id="Path_3058" d="M27.2 1.838a3 3 0 0 1 2.187-.907 3.063 3.063 0 0 1 2.208.907 2.912 2.912 0 0 1 .925 2.175 3.014 3.014 0 0 1-.92 2.207 3.013 3.013 0 0 1-2.208.923A2.949 2.949 0 0 1 27.2 6.22a3.046 3.046 0 0 1-.89-2.208 2.942 2.942 0 0 1 .89-2.174zm10.582 6.124a7.422 7.422 0 0 0-4.307 1.365V14a4.036 4.036 0 0 1 2.865-1.108 3.668 3.668 0 0 1 3.852 3.637v9.583h5.478V15.141c-.001-2.373-1.722-7.179-7.888-7.179z" class="cls-1" data-name="Path 3058" transform="translate(20.789)"/>
        <path id="Path_3059" d="M7.55 16.659a9.162 9.162 0 0 1 9.459-9.3 9.168 9.168 0 0 1 9.457 9.33 9.168 9.168 0 0 1-9.457 9.33A9.169 9.169 0 0 1 7.55 16.69zm5.252.064a4.211 4.211 0 1 0 8.413-.033 4.212 4.212 0 1 0-8.413 0zm32.942 6.642c0 2.624-.191 4.3-1.044 5.788-1.36 2.213-4.555 4.142-8.888 4.142-6.1 0-8.413-3.669-8.761-6.166h6.073a2.861 2.861 0 0 0 1.676 1.517 4.277 4.277 0 0 0 1.391.222 4.067 4.067 0 0 0 4.27-4.27v-1.045a5.479 5.479 0 0 1-4.872 2.5c-4.775 0-8.855-3.606-8.855-9.237 0-6.008 4.3-9.457 8.855-9.457a5.767 5.767 0 0 1 4.9 2.213V7.929h5.25zm-13.758-6.706a4.255 4.255 0 0 0 4.206 4.491 4.166 4.166 0 0 0 3.068-1.2 4.655 4.655 0 0 0 1.233-3.035 4.932 4.932 0 0 0-1.107-3.29 3.918 3.918 0 0 0-3.164-1.36 4.268 4.268 0 0 0-4.237 4.366zm15.592-8.73h5.25v17.553h-5.25zm24.7 10.6a3.816 3.816 0 0 0 4.048 3.1 3.543 3.543 0 0 0 3.2-1.644h5.375a10.3 10.3 0 0 1-3.573 4.491 8.53 8.53 0 0 1-5 1.582 9.363 9.363 0 0 1-.1-18.724 8.976 8.976 0 0 1 6.642 2.782 9.8 9.8 0 0 1 2.468 8.414zm7.906-3.986a4.154 4.154 0 0 0-7.844 0zm12.345-2.624h2.531v-3.99h-2.539V3.344h-5.25v4.585h-2.59v3.986h2.589v8.429c0 5.093 3.764 5.535 7.464 5.535v-4.392c-.98 0-2.213 0-2.213-1.677v-7.895zM1.417 1.689h5.245v23.835H1.417z" data-name="Path 3059" transform="translate(0 .633)"/>
    </g>
</svg>
